<svg version="1.1" id="Layer_1" xmlns="http://www.w3.org/2000/svg" x="0" y="0" viewBox="0 0 329 73.6" xml:space="preserve"><style>.st0{fill:#231f20}.st1{fill:#fff}</style><path class="st0" d="M0 0v73.6h329V0H0zm324.9 69.4H156.8V4.1h168.1v65.3z"/><path class="st1" d="M17.5 49.1V24.6h8.4v17.9h14.9V49l-23.3.1zM74.1 36.7c0 7.8-4.9 12.8-16.4 12.8-10.5 0-16.4-4.3-16.4-12.8 0-7.5 5.7-12.6 16.4-12.6 10.9 0 16.4 4.7 16.4 12.6zm-8.5.1c0-3.5-1.5-6.4-8-6.4-6 0-7.9 2.5-7.9 6.4 0 3.9 1.8 6.4 7.9 6.4 6.2 0 8-2.7 8-6.4zM100.2 49.1l-.2-2.4c-2.8 2-6.3 3-9.7 2.7-5.2 0-9.5-1.6-12-4.7-1.6-2.3-2.4-5.1-2.3-7.9-.1-2.7.7-5.4 2.4-7.6 2.5-3.1 6.9-5.1 13.6-5.1 7.6 0 12.1 2.3 14 6.3.4.9.7 1.9.7 2.9h-8.1c-.2-.6-.6-1.2-1.1-1.6-1.6-1.1-3.5-1.6-5.5-1.4-2.3-.3-4.6.4-6.3 2-1 1.3-1.4 2.9-1.3 4.6-.1 1.6.3 3.1 1.2 4.4 1.7 1.6 4.1 2.4 6.4 2.1 2.3.2 4.6-.5 6.4-2 .4-.5.7-1.1.8-1.7h-8.7v-5.3h16.3v14.5l-6.6.2zM142.1 36.7c0 7.8-4.9 12.8-16.4 12.8-10.5 0-16.4-4.3-16.4-12.8 0-7.5 5.7-12.6 16.4-12.6 10.9 0 16.4 4.7 16.4 12.6zm-8.4.1c0-3.5-1.5-6.4-8-6.4-6 0-7.9 2.5-7.9 6.4 0 3.9 1.8 6.4 7.9 6.4 6.2 0 8-2.7 8-6.4z"/><path class="st0" d="M171 49V24.6h6V49h-6zM207.9 38.8c-1.5 2-4.1 2.9-7.8 2.9H189V49h-5.9V24.6h17c2.8-.3 5.5.6 7.6 2.5 1.3 1.8 2 3.9 1.8 6.1.1 2-.4 3.9-1.6 5.6zm-4.8-8c-.6-.9-2-1.5-4.2-1.5H189v7.4h9.9c2.4 0 3.7-.5 4.3-1.5.4-.7.5-1.4.4-2.2 0-.7-.2-1.5-.5-2.2zM226.8 49.4c-11.1 0-14.5-4.1-14.5-8.3h6.3c0 2 2.8 3.6 8.5 3.6s7.2-1 7.2-2.6c0-1.8-1.1-2.4-6.4-3-1-.1-3.9-.4-4.9-.6-7.5-.8-10.3-3.1-10.3-7 0-4.2 4.2-7.3 13.3-7.3 9.9 0 13.7 3.9 13.7 7.9h-6.2c0-2.1-2.3-3.2-7.9-3.2-5.7 0-6.9.8-6.9 2.3 0 1.6 1.2 2.1 7.3 2.8 1.4.2 4.4.5 5.3.6 6.4.7 9.2 3 9.2 7 0 4.9-4.4 7.8-13.7 7.8zM258.2 49.3c-8.1 0-13.4-3.2-13.4-10V24.6h5.9v14.9c0 3.1 2.5 5.1 7.7 5.1 4.7 0 7.5-1.9 7.5-5.1V24.6h5.9V40c0 6.1-4.9 9.3-13.6 9.3zM304.1 49V32.7L296.4 49h-5.8l-7.4-16.3V49h-5.6V24.6h7.6l8.4 18.6 8.6-18.6h7.5V49h-5.6z"/></svg>